<?xml version="1.0" encoding="utf-8"?>
<!-- Generator: Adobe Illustrator 18.1.0, SVG Export Plug-In . SVG Version: 6.00 Build 0)  -->
<!DOCTYPE svg PUBLIC "-//W3C//DTD SVG 1.1//EN" "http://www.w3.org/Graphics/SVG/1.1/DTD/svg11.dtd">
<svg version="1.1" id="Layer_2" xmlns="http://www.w3.org/2000/svg" xmlns:xlink="http://www.w3.org/1999/xlink" x="0px" y="0px"
	 width="48px" height="48px" viewBox="0 0 48 48" enable-background="new 0 0 48 48" xml:space="preserve">
<path fill="#B5C531" d="M45.9,20.6c2-4.7,2.9-13.2-6.1-18C36.6,0.9,33.4,0,30.3,0c-7.4,0-12.2,4.7-14,6.9c-0.2,0-0.3,0-0.5,0
	C12.5,6.9,4.6,7.6,1,14.8c-3.6,7.3,3.3,13.3,6.3,15.5c-0.5,3,0.3,7.6,5.9,9.8c1.6,0.6,3.3,1,5.1,1c1.8,0,3.4-0.3,4.8-0.8
	c-0.6,2.9-1.4,5.6-2.3,7.7h8.8c1.2-2.4,1.7-5.5,1.7-8.8c0.9,0.1,1.9,0.2,2.9,0.2c3.8,0,7.2-1.3,9.9-3.6
	C49.9,30.7,48.1,24.1,45.9,20.6z M40.7,32.8c-1.9,1.6-4.1,2.4-6.6,2.4c-1.2,0-2.3-0.2-3.2-0.4c-0.3-2.5-0.9-5-1.7-7.4
	c2.3-1.8,6.5-6.3,6-13.3c-3.6,7.2-5.4,8.7-7.4,9.6c-1.6-3.4-3.6-6.3-5.7-7.9c1.8,3.6,2.5,9.1,2.3,14.8c-2.2-0.5-4.4-1.7-9.8-7.6
	c1.6,6.6,6.7,9.9,9.6,11.3c0,0.2-0.1,0.5-0.1,0.7c-1.3,0.8-3.3,1.7-5.6,1.7c-1.1,0-2.1-0.2-3.2-0.6c-4.3-1.7-3.2-5.4-2.9-6.1
	l0.6-1.5l-1.5-0.9c-0.1-0.1-8.8-5.3-5.9-11.2c2.3-4.7,7.5-5.4,10.4-5.4c0.8,0,1.4,0.1,1.4,0.1l1.5,0.2l0.8-1.2
	c0-0.1,4.1-5.9,10.8-5.9c2.3,0,4.7,0.7,7.2,2c8.4,4.5,3.9,13.3,3.7,13.6l-0.6,1.1l0.8,1C41.5,22.2,46,28.2,40.7,32.8z"/>
</svg>
