<?xml version="1.0" encoding="utf-8"?>
<!-- Generator: Adobe Illustrator 18.1.0, SVG Export Plug-In . SVG Version: 6.00 Build 0)  -->
<!DOCTYPE svg PUBLIC "-//W3C//DTD SVG 1.1//EN" "http://www.w3.org/Graphics/SVG/1.1/DTD/svg11.dtd">
<svg version="1.1" id="Icons" xmlns="http://www.w3.org/2000/svg" xmlns:xlink="http://www.w3.org/1999/xlink" x="0px" y="0px"
	 width="48px" height="48px" viewBox="-71.5 1 48 48" enable-background="new -71.5 1 48 48" xml:space="preserve">
<path fill="#6EA929" d="M-25.8,49h-31.5c-1.2,0-2.3-1-2.3-2.3c0-3.3,1.4-7.2,3.6-10.6c1.9-2.8,4.3-4.9,6.8-6.2
	c-1.1-1-2.1-2.3-2.8-3.7c-1.2-2.3-1.9-5-1.9-7.7c0-3.8,1.2-7.4,3.5-10.1C-48,5.6-44.9,4-41.5,4s6.5,1.6,8.8,4.4
	c2.2,2.7,3.5,6.3,3.5,10.1c0,2.7-0.6,5.4-1.9,7.7c-0.8,1.4-1.7,2.7-2.8,3.7c2.5,1.2,4.9,3.4,6.8,6.2c2.3,3.4,3.6,7.3,3.6,10.6
	C-23.5,48-24.5,49-25.8,49z M-54.7,44.4h26.4c-0.4-1.9-1.3-3.9-2.6-5.7c-1.9-2.9-4.4-4.7-6.8-5.3c-1-0.2-1.8-1.2-1.8-2.2v-1.6
	c0-0.8,0.4-1.6,1.1-2c2.8-1.6,4.6-5.2,4.6-9c0-5.5-3.5-9.9-7.8-9.9s-7.8,4.4-7.8,9.9c0,3.9,1.8,7.4,4.6,9c0.7,0.4,1.1,1.2,1.1,2v1.6
	c0,1.1-0.7,2-1.8,2.2c-2.5,0.5-4.9,2.4-6.8,5.3C-53.4,40.5-54.3,42.6-54.7,44.4z M-62.3,41.4h-4.5c0.4-1.9,1.3-3.9,2.6-5.7
	c1.9-2.9,4.4-4.7,6.8-5.3c1-0.2,1.8-1.2,1.8-2.2v-1.6c0-0.8-0.4-1.6-1.1-2c-2.8-1.6-4.6-5.2-4.6-9c0-5.5,3.5-9.9,7.8-9.9
	c0.3,0,0.6,0,0.9,0.1c1.2-1.4,2.6-2.5,4.2-3.4C-50,1.4-51.7,1-53.5,1c-3.4,0-6.5,1.6-8.8,4.4c-2.2,2.7-3.5,6.3-3.5,10.1
	c0,2.7,0.6,5.4,1.9,7.7c0.8,1.4,1.7,2.7,2.8,3.7c-2.5,1.2-4.9,3.4-6.8,6.2c-2.3,3.4-3.6,7.3-3.6,10.6c0,1.3,1,2.3,2.3,2.3h6.2
	C-63,44.5-62.7,42.9-62.3,41.4z"/>
</svg>
