<?xml version="1.0" encoding="utf-8"?>
<!-- Generator: Adobe Illustrator 18.1.0, SVG Export Plug-In . SVG Version: 6.00 Build 0)  -->
<!DOCTYPE svg PUBLIC "-//W3C//DTD SVG 1.1//EN" "http://www.w3.org/Graphics/SVG/1.1/DTD/svg11.dtd">
<svg version="1.1" id="Layer_1" xmlns="http://www.w3.org/2000/svg" xmlns:xlink="http://www.w3.org/1999/xlink" x="0px" y="0px"
	 width="65px" height="48px" viewBox="0 0 65 48" enable-background="new 0 0 65 48" xml:space="preserve">
<path fill="#1c468b" d="M65,25l-4.1-8.1h-6.1v-4.1c0-1.1-0.9-2-2-2H2c-1.1,0-2,0.9-2,2v16.2l2,2h2.3c-0.2,0.5-0.4,1.1-0.4,1.6
	c0,2.3,1.8,4.1,4.1,4.1s4.1-1.8,4.1-4.1c0-0.6-0.1-1.1-0.4-1.6h1c-0.2,0.5-0.4,1.1-0.4,1.6c0,2.3,1.8,4.1,4.1,4.1s4.1-1.8,4.1-4.1
	c0-0.6-0.1-1.1-0.4-1.6h1.1c-0.2,0.5-0.4,1.1-0.4,1.6c0,2.3,1.8,4.1,4.1,4.1s4.1-1.8,4.1-4.1c0-0.6-0.1-1.1-0.4-1.6h12.4
	c-0.3,0.6-0.5,1.3-0.5,2c0,2.2,1.8,4.1,4.1,4.1c2.2,0,4.1-1.8,4.1-4.1c0-0.7-0.2-1.4-0.5-2h7.2c-0.3,0.6-0.5,1.3-0.5,2
	c0,2.2,1.8,4.1,4.1,4.1c2.2,0,4.1-1.8,4.1-4.1c0-0.7-0.2-1.4-0.5-2H65V25z M54.9,25v-5.1h4.2l2.5,5.1H54.9z"/>
</svg>
